# Blender v3.0.1 OBJ File: 'church.blend'
# www.blender.org
o Cube
v 1.000000 1.000000 -1.000000
v 1.286014 0.845141 -1.286014
v 1.000000 1.000000 1.000000
v 1.286014 0.845141 1.286014
v -1.000000 1.000000 -1.000000
v -1.286014 0.845141 -1.286014
v -1.000000 1.000000 1.000000
v -1.286014 0.845141 1.286014
v 0.498457 1.523885 -0.498457
v 0.498457 1.523885 0.498457
v -0.498457 1.523885 -0.498457
v -0.498457 1.523885 0.498457
v 0.028839 2.759792 -0.028839
v 0.028839 2.759792 0.028839
v -0.028839 2.759792 -0.028839
v -0.028839 2.759792 0.028839
v 1.286014 0.818924 -1.286014
v 1.286014 0.818924 1.286014
v -1.286014 0.818924 -1.286014
v -1.286014 0.818924 1.286014
v 0.947544 0.818924 -0.947544
v 0.947544 0.818924 0.947544
v -0.947544 0.818924 -0.947544
v -0.947544 0.818924 0.947544
v 0.947544 -0.733700 -0.947544
v 0.947544 -0.733700 0.947544
v -0.947544 -0.733700 -0.947544
v -0.947544 -0.733700 0.947544
v 0.947544 -2.865371 -0.947544
v 0.947544 -2.865371 0.947544
v -0.947544 -2.865371 -0.947544
v -0.947544 -2.865371 0.947544
v 0.947544 -1.799536 -0.947544
v -0.947544 -1.799536 -0.947544
v -0.947544 -1.799536 0.947544
v 0.947544 -1.799536 0.947544
v 0.000000 0.845141 -1.286014
v 0.000000 1.000000 1.000000
v 0.000000 0.845141 1.286014
v 0.000000 1.000000 -1.000000
v 0.000000 1.523885 0.498457
v 0.000000 1.523885 -0.498457
v 0.000000 2.759792 0.028839
v 0.000000 2.759792 -0.028839
v 0.000000 0.818924 -1.286014
v 0.000000 0.818924 1.286014
v 0.000000 0.818924 -0.947544
v 0.000000 0.818924 0.947544
v 0.000000 -0.733700 -0.947544
v 0.000000 -0.733700 0.947544
v 0.000000 -2.865371 -0.947544
v 0.000000 -2.865371 0.947544
v 0.000000 -1.799536 0.947544
v 0.947544 -2.865371 -4.191379
v -0.947544 -2.865371 -4.191379
v 0.947544 -1.799536 -4.191379
v -0.947544 -1.799536 -4.191379
v 0.000000 -0.733700 -4.191379
v 0.000000 -2.865371 -4.191379
v 0.298207 -2.811257 -4.908965
v 0.947544 -2.865371 -4.591497
v -0.947544 -2.865371 -4.591497
v 0.662892 -1.719489 -4.591497
v -0.662892 -1.719489 -4.591497
v 0.000000 -0.973841 -4.591497
v 0.000000 -2.865371 -4.591497
v -0.298207 -2.811257 -4.908965
v 0.241593 -1.743622 -4.908965
v -0.241593 -1.743622 -4.908965
v 0.000000 -1.289712 -4.908965
v 0.000000 -2.811257 -4.908965
v 0.000000 -1.743622 -4.908965
vn 0.0000 0.6915 -0.7223
vn 0.0000 0.8794 0.4761
vn -0.4761 0.8794 0.0000
vn 0.0000 0.0000 -1.0000
vn 0.4761 0.8794 0.0000
vn 0.0000 0.8794 -0.4761
vn -0.9348 0.3552 0.0000
vn 0.0000 0.6915 0.7223
vn -0.7223 0.6915 0.0000
vn 0.7223 0.6915 0.0000
vn 0.0000 1.0000 0.0000
vn 0.0000 0.3552 0.9348
vn 0.0000 0.3552 -0.9348
vn 0.9348 0.3552 0.0000
vn 0.0000 -1.0000 0.0000
vn 0.0000 0.0000 1.0000
vn -1.0000 0.0000 0.0000
vn 1.0000 0.0000 0.0000
vn -0.7474 0.6644 0.0000
vn -0.9390 0.1209 -0.3219
vn 0.6942 0.6172 -0.3704
vn 0.9390 0.1209 -0.3219
vn 0.7474 0.6644 0.0000
vn -0.6077 0.4582 -0.6486
vn 0.0000 -0.9858 -0.1680
vn -0.5101 0.0786 -0.8565
vn -0.6942 0.6172 -0.3704
vn 0.5101 0.0786 -0.8565
vn 0.6077 0.4582 -0.6486
s off
f 40//1 5//1 11//1 42//1
f 39//2 38//2 7//2 8//2
f 8//3 7//3 5//3 6//3
f 37//4 2//4 17//4 45//4
f 2//5 1//5 3//5 4//5
f 37//6 40//6 1//6 2//6
f 11//7 12//7 16//7 15//7
f 38//8 3//8 10//8 41//8
f 5//9 7//9 12//9 11//9
f 3//10 1//10 9//10 10//10
f 44//11 15//11 16//11 43//11
f 41//12 10//12 14//12 43//12
f 42//13 11//13 15//13 44//13
f 10//14 9//14 13//14 14//14
f 46//15 20//15 24//15 48//15
f 39//16 8//16 20//16 46//16
f 8//17 6//17 19//17 20//17
f 2//18 4//18 18//18 17//18
f 21//18 22//18 26//18 25//18
f 20//15 19//15 23//15 24//15
f 17//15 18//15 22//15 21//15
f 45//15 17//15 21//15 47//15
f 51//15 31//15 55//15 59//15
f 47//4 21//4 25//4 49//4
f 48//16 24//16 28//16 50//16
f 24//17 23//17 27//17 28//17
f 51//15 29//15 30//15 52//15
f 53//16 35//16 32//16 52//16
f 35//17 34//17 31//17 32//17
f 33//18 36//18 30//18 29//18
f 25//18 26//18 36//18 33//18
f 28//17 27//17 34//17 35//17
f 50//16 28//16 35//16 53//16
f 49//4 25//4 33//4
f 31//17 34//17 57//17 55//17
f 26//16 50//16 53//16 36//16
f 36//16 53//16 52//16 30//16
f 31//15 51//15 52//15 32//15
f 22//16 48//16 50//16 26//16
f 23//4 47//4 49//4 27//4
f 34//19 49//19 58//19 57//19
f 19//15 45//15 47//15 23//15
f 4//16 39//16 46//16 18//16
f 18//15 46//15 48//15 22//15
f 9//13 42//13 44//13 13//13
f 12//12 41//12 43//12 16//12
f 13//11 44//11 43//11 14//11
f 7//8 38//8 41//8 12//8
f 6//6 5//6 40//6 37//6
f 6//4 37//4 45//4 19//4
f 4//2 3//2 38//2 39//2
f 1//1 40//1 42//1 9//1
f 33//18 29//18 54//18 56//18
f 27//4 49//4 34//4
f 55//20 57//20 64//20 62//20
f 54//15 59//15 66//15 61//15
f 58//21 56//21 63//21 65//21
f 56//22 54//22 61//22 63//22
f 49//23 33//23 56//23 58//23
f 29//15 51//15 59//15 54//15
f 64//24 65//24 70//24 69//24
f 66//25 62//25 67//25 71//25
f 62//26 64//26 69//26 67//26
f 61//25 66//25 71//25 60//25
f 59//15 55//15 62//15 66//15
f 57//27 58//27 65//27 64//27
f 72//4 68//4 60//4 71//4
f 70//4 72//4 69//4
f 69//4 72//4 71//4 67//4
f 72//4 70//4 68//4
f 63//28 61//28 60//28 68//28
f 65//29 63//29 68//29 70//29
